<svg width="62" height="62" viewBox="0 0 62 62" fill="none" xmlns="http://www.w3.org/2000/svg">
<path d="M55.0276 10.3335C56.0893 10.3335 56.8333 11.1421 56.8333 12.0462C56.8333 12.6869 56.4587 13.3767 55.5494 13.8597C50.9304 16.3087 45.5829 24.7769 45.5829 30.0004C53.3742 29.7627 56.7584 36.6706 56.7584 41.0002C56.7584 46.185 52.2686 51.6668 45.6294 51.6668C37.2594 51.6668 33.1519 45.0871 33.1519 37.9571C33.1519 22.5087 50.8064 10.3335 55.0276 10.3335ZM27.0423 10.3335C28.1015 10.3335 28.8481 11.1421 28.8481 12.0462C28.8481 12.6869 28.4735 13.3767 27.5642 13.8597C22.9452 16.3087 17.5977 24.7769 17.5977 30.0004C25.389 29.7627 28.7732 36.6706 28.7732 41.0002C28.7732 46.185 24.2807 51.6668 17.6442 51.6668C9.27157 51.6668 5.16666 45.0871 5.16666 37.9571C5.16666 22.5087 22.8186 10.3335 27.0423 10.3335Z" fill="#E8636F"/>
</svg>
